<svg xmlns="http://www.w3.org/2000/svg" xmlns:xlink="http://www.w3.org/1999/xlink" width="1000" zoomAndPan="magnify" viewBox="0 0 750 749.999995" height="1000" preserveAspectRatio="xMidYMid meet" version="1.2"><defs><clipPath id="f32588cfa4"><path d="M 50.285156 0 L 699.785156 0 L 699.785156 750 L 50.285156 750 Z M 50.285156 0 "/></clipPath></defs><g id="9ef84e9830"><rect x="0" width="750" y="0" height="749.999995" style="fill:#ffffff;fill-opacity:1;stroke:none;"/><rect x="0" width="750" y="0" height="749.999995" style="fill:#ffffff;fill-opacity:1;stroke:none;"/><g clip-rule="nonzero" clip-path="url(#f32588cfa4)"><path style=" stroke:none;fill-rule:evenodd;fill:#00e363;fill-opacity:1;" d="M 212.410156 93.917969 L 50.3125 187.5 L 50.378906 374.953125 L 50.449219 562.40625 L 212.640625 656.042969 C 301.847656 707.542969 375.027344 749.605469 375.265625 749.511719 C 375.863281 749.285156 699.125 562.667969 699.632812 562.257812 C 699.960938 561.992188 700.042969 524.027344 700.039062 374.382812 C 700.035156 271.238281 699.925781 187 699.792969 187.1875 C 699.640625 187.402344 638.335938 152.183594 537.6875 94.054688 C 448.660156 42.640625 375.527344 0.519531 375.164062 0.453125 C 374.746094 0.378906 315.609375 34.339844 212.410156 93.917969 M 250.765625 157.71875 L 125.054688 230.285156 L 124.890625 478.910156 L 125.957031 478.253906 C 128.136719 476.921875 410.953125 314.128906 411.375 313.964844 C 411.734375 313.828125 411.808594 320.941406 411.808594 355.191406 L 411.808594 396.582031 L 286.289062 469.351562 C 193.234375 523.300781 160.871094 542.21875 161.152344 542.484375 C 161.894531 543.191406 231.875 581.5625 232.382812 581.542969 C 232.667969 581.53125 289.496094 548.863281 358.671875 508.941406 L 484.441406 436.363281 L 484.441406 187.929688 L 483.046875 188.738281 C 482.277344 189.183594 417.488281 226.851562 339.066406 272.441406 C 260.644531 318.035156 196.414062 355.265625 196.328125 355.179688 C 196.054688 354.910156 197.261719 270.332031 197.539062 270.15625 C 197.683594 270.066406 254.160156 237.3125 323.046875 197.367188 C 391.929688 157.421875 448.289062 124.65625 448.289062 124.554688 C 448.289062 124.3125 377.183594 85.117188 376.785156 85.136719 C 376.617188 85.144531 319.910156 117.808594 250.765625 157.71875 M 50.449219 374.835938 C 50.449219 478.050781 50.484375 520.324219 50.53125 468.777344 C 50.578125 417.230469 50.578125 332.78125 50.53125 281.113281 C 50.484375 229.445312 50.449219 271.621094 50.449219 374.835938 M 556.828125 229.777344 L 556.914062 271.585938 L 592.199219 292.417969 C 611.605469 303.871094 627.519531 313.203125 627.5625 313.148438 C 627.664062 313.019531 628.402344 228.964844 628.304688 228.898438 C 628.039062 228.722656 558.078125 188.671875 557.484375 188.359375 L 556.746094 187.96875 Z M 557.003906 416.984375 L 557.121094 479.347656 L 431.546875 552.125 C 362.480469 592.152344 306.085938 625.003906 306.222656 625.128906 C 306.359375 625.253906 322.480469 634.175781 342.046875 644.953125 L 377.617188 664.546875 L 503.253906 592.054688 C 572.351562 552.179688 629.058594 519.382812 629.265625 519.171875 C 629.550781 518.882812 629.492188 504.738281 629.035156 461.765625 C 628.699219 430.402344 628.417969 402.65625 628.410156 400.105469 L 628.394531 395.46875 L 592.777344 375.046875 C 573.191406 363.8125 557.101562 354.625 557.023438 354.625 C 556.949219 354.625 556.9375 382.6875 557.003906 416.984375 "/></g></g></svg>